<svg width="416" height="82" viewBox="0 0 416 82" fill="none" xmlns="http://www.w3.org/2000/svg">
<path d="M4.15815 43.9618C4.97577 43.7315 6.0666 43.5282 7.34492 43.3545C7.05256 44.1154 6.76093 44.876 6.49567 45.5728C3.69403 52.9337 2.11406 60.9153 1.85004 68.4143C1.85004 72.7346 3.29145 78.3509 7.32271 80.7991C8.04341 81.2307 9.19087 81.7026 10.2036 81.8069C10.7528 81.8635 11.2125 81.7643 11.2125 81.3317C11.2125 80.9 10.7797 80.6546 10.4907 80.511C9.05122 79.6467 8.18795 76.6223 8.18795 74.0306C7.18783 64.6567 12.5784 54.6265 17.2324 46.4033C17.9784 45.0853 18.664 43.8875 19.3182 42.744C20.0204 42.751 20.7243 42.7591 21.436 42.7796C23.4516 42.7796 26.6215 43.0676 27.0532 43.2122C27.1958 43.2122 27.4848 43.3557 27.6294 43.2122C27.772 43.2122 27.9165 43.3558 28.061 43.3558C31.5161 43.9319 36.7016 44.22 37.2778 43.3558C37.9985 42.4915 36.7016 41.9153 35.4048 40.4759C34.2524 39.179 34.2497 37.3857 33.8181 36.953C33.0974 36.2333 32.5212 36.3769 30.9372 36.5214C29.5764 36.5214 26.2865 36.6764 22.598 36.9178C23.235 35.752 23.8822 34.5405 24.5695 33.2089C28.1055 26.3578 32.551 17.6404 31.718 10.8563C36.8467 11.3472 44.2955 12.101 44.3345 12.1048C48.0786 12.5374 51.3911 13.1136 53.4067 12.3929C55.1353 11.6732 55.7114 10.0891 56.143 8.07255C56.4321 5.62431 55.8559 1.16044 53.2622 0.29618C52.9751 0.15164 52.1118 0.15165 51.9673 0.43975C51.9673 0.58429 52.2544 0.727825 52.1118 1.73662C51.9673 2.5999 50.9595 3.60871 49.518 3.60871C36.27 4.04035 23.5962 1.73663 11.643 6.05695C7.8989 7.35285 5.16259 8.64874 3.14695 10.3773C2.71531 10.6653 2.42624 11.2406 2.57076 11.5286C2.7153 12.1048 3.14695 12.1048 3.72311 12.1048C7.53121 11.8195 9.95615 11.0936 13.3682 10.6343C15.3608 10.3663 17.4342 10.2502 19.6775 10.2344C19.6815 10.3276 19.6925 10.4062 19.6932 10.5059C19.7108 12.9012 18.5863 15.9626 17.2751 19.2752C15.4088 23.991 12.8774 29.2098 11.2114 33.7073C10.5976 35.1376 9.94794 36.737 9.30132 38.3572C6.35174 39.007 4.40351 39.8404 3.43133 40.5583C1.41521 42.0468 0.555107 43.6438 0.986747 44.3636C1.20051 44.847 3.12007 44.2544 4.15815 43.9618Z" fill="#0A66C2"/>
<path d="M3.43131 40.5584C1.41519 42.0469 0.555108 43.6439 0.986748 44.3637C1.20049 44.8472 3.12016 44.2544 4.15812 43.9619C4.97574 43.7316 6.06667 43.5283 7.34499 43.3546C7.96559 41.7394 8.62639 40.0486 9.30131 38.3574C6.35187 39.0072 4.40349 39.8405 3.43131 40.5584Z" fill="url(#paint0_linear_560_3)"/>
<path d="M35.4049 40.4756C34.2526 39.1787 34.2499 37.3854 33.8182 36.9528C33.0975 36.2331 32.5214 36.3766 30.9374 36.5212C29.5764 36.5212 26.2866 36.6762 22.598 36.9175C21.5188 38.893 20.469 40.7327 19.3184 42.7438C20.0205 42.7508 20.7245 42.7589 21.4362 42.7794C23.4518 42.7794 26.6217 43.0674 27.0533 43.212C27.1959 43.212 27.485 43.3555 27.6295 43.212C27.7721 43.212 27.9166 43.3555 28.0612 43.3555C31.5162 43.9317 36.7018 44.2198 37.278 43.3555C37.9986 42.4913 36.7018 41.9151 35.4049 40.4756Z" fill="url(#paint1_linear_560_3)"/>
<path d="M51.9675 0.439453C51.9675 0.583993 52.2546 0.727528 52.112 1.73633C51.9675 2.59961 50.9597 3.60841 49.5182 3.60841C44.4919 3.77223 39.549 3.543 34.696 3.43044C26.2717 3.65968 19.1662 4.60939 13.4889 6.27455C8.51239 7.73391 2.21932 10.5394 2.59198 11.5717C2.7497 12.0935 3.16619 12.1045 3.72331 12.1045C7.53191 11.8191 9.95672 11.0933 13.3688 10.634C17.2023 10.1182 21.3561 10.168 26.4347 10.4174L26.4323 10.4118C35.1536 11.0264 48.4093 12.3767 51.9873 9.79463C54.5367 7.95491 55.378 1.41219 51.9675 0.439453Z" fill="url(#paint2_radial_560_3)"/>
<path d="M31.6517 10.2895C31.2137 7.70771 26.8066 6.4395 24.4536 6.10336C22.1471 5.77388 19.3015 6.46789 18.9451 7.27427C18.7516 7.71223 19.676 8.22507 19.6928 10.5057C19.7104 12.901 18.5858 15.9623 17.2747 19.275C15.4084 23.9908 12.8769 29.2095 11.2109 33.7072C9.6549 37.3335 7.86298 41.9793 6.4953 45.5726C3.69358 52.9335 2.11365 60.9151 1.84961 68.4142C1.84961 72.7345 3.29101 78.3507 7.32227 80.799C8.04297 81.2306 9.19049 81.7025 10.2031 81.8068C10.7524 81.8633 11.2121 81.7641 11.2121 81.3315C11.2121 80.8999 10.7793 80.6544 10.4902 80.5109C9.05076 79.6466 8.18748 76.6222 8.18748 74.0304C7.18736 64.6564 12.578 54.6264 17.232 46.4031C20.0644 41.3985 22.0551 38.0795 24.569 33.2088C28.2033 26.1674 32.8153 17.1482 31.6517 10.2895Z" fill="url(#paint3_linear_560_3)"/>
<path d="M22.9829 36.2074C23.4969 35.2569 24.0194 34.2739 24.5692 33.2088C28.1052 26.3577 32.5508 17.6403 31.7177 10.8561C29.4562 10.6397 27.6413 10.4738 27.1195 10.4467C24.398 10.3056 21.9502 10.2184 19.6773 10.2343C19.6813 10.3274 19.6923 10.406 19.693 10.5058C19.7106 12.901 18.586 15.9624 17.2749 19.275C15.4086 23.9909 12.8771 29.2095 11.2111 33.7072C10.8732 34.4946 10.5214 35.345 10.168 36.2074L22.9829 36.2074Z" fill="url(#paint4_linear_560_3)"/>
<path d="M56.4269 22.1849C56.714 19.5931 57.5793 16.7122 56.714 13.9759C56.4269 12.3919 56.1398 12.1038 56.2824 11.6722C56.5715 10.9524 58.7316 10.8079 60.8918 11.5276C64.3469 12.8245 66.9406 14.6966 67.6594 18.0091C68.091 20.6009 67.2277 22.3294 65.6437 23.7688C63.9152 25.4973 59.5949 27.6575 56.8586 26.6497C55.7062 25.7854 56.4269 23.3372 56.4269 22.1849ZM48.9387 80.9417C53.1473 80.9417 56.9175 80.2012 62.4322 75.7131C62.9666 75.278 63.4626 74.7977 63.9657 74.3267C64.1723 74.1333 64.324 73.929 64.5056 73.7214C64.7369 73.457 65.0606 73.2372 65.331 73.0135C65.721 72.7001 66.1574 72.3594 66.4788 71.97C66.6332 71.7842 66.7534 71.5643 66.7706 71.3165C66.9178 71.3262 67.0623 71.3024 67.1972 71.2508C67.5455 71.113 67.6926 70.7519 67.8693 70.4557C68.0777 70.1045 68.3892 70.1768 68.6393 69.8805C69.1424 69.2948 73.6072 65.8863 74.1025 62.7972C74.3007 61.5606 73.7553 59.4842 71.4239 58.9291C70.8806 60.3719 67.8425 64.0127 63.4 68.1058C59.174 71.9991 54.5825 74.8101 52.8309 74.8101C49.2327 74.8101 51.7905 68.4101 53.1144 65.0999C53.9797 63.2288 56.8586 57.18 57.4348 55.0198C57.5793 54.7317 57.2902 54.4436 57.5793 54.1556C57.8664 53.8675 58.0109 53.2913 58.3 53.0032C59.1633 51.2757 62.6203 44.0745 63.3391 42.3469C64.7805 38.7464 62.4758 37.3059 59.1633 35.0022C57.5793 33.9944 55.7062 33.1302 54.2668 32.554C52.8274 31.9778 51.2434 32.1214 50.9543 32.6975C50.8098 32.9856 51.0988 33.4182 51.2434 34.2825C51.8176 38.3147 43.7531 54.7317 42.1691 59.4847C40.5852 63.9495 39.0012 73.1663 41.882 77.9183C43.3215 80.0784 46.0578 80.9417 48.9387 80.9417Z" fill="#0A66C2"/>
<path d="M57.0938 72.9666C55.2368 74.1235 53.682 74.8105 52.8195 74.8105C49.2213 74.8105 51.779 68.4106 53.1031 65.1004C53.9683 63.2293 56.8472 57.1805 57.4234 55.0203C57.5679 54.7322 57.2788 54.4441 57.5679 54.156C57.855 53.868 57.9996 53.2918 58.2886 53.0037C59.1519 51.2762 62.609 44.075 63.3277 42.3475C64.7691 38.7469 62.4644 37.3064 59.1519 35.0027C57.5679 33.9949 55.6949 33.1306 54.2554 32.5545C52.816 31.9783 51.232 32.1219 50.9429 32.6981C50.7984 32.9861 51.0875 33.4188 51.232 34.283C51.8062 38.3152 43.7418 54.7322 42.1578 59.4851C41.674 60.8487 41.2063 62.677 40.8498 64.6643C40.1058 77.5243 48.6959 79.3244 57.0938 72.9666Z" fill="url(#paint5_radial_560_3)"/>
<path d="M71.4129 58.9287C70.8695 60.3715 67.8315 64.0122 63.389 68.1052C61.2439 70.0814 59.0085 71.7733 57.0943 72.9657C48.6963 79.3235 40.1062 77.5234 40.8503 64.6635C40.0392 69.1837 39.87 74.6171 41.8711 77.9179C43.3106 80.078 46.0469 80.9413 48.9278 80.9413C53.1363 80.9413 56.9065 80.2008 62.4212 75.7126C62.9556 75.2776 63.4516 74.7971 63.9547 74.3262C64.1613 74.1328 64.313 73.9285 64.4945 73.7209C64.7258 73.4565 65.0496 73.2367 65.32 73.013C65.71 72.6996 66.1464 72.3589 66.4678 71.9695C66.6222 71.7837 66.7423 71.5637 66.7595 71.3159C66.9067 71.3257 67.0513 71.3019 67.1862 71.2503C67.5344 71.1125 67.6815 70.7514 67.8583 70.4552C68.0667 70.104 68.3782 70.1763 68.6283 69.88C69.1314 69.2943 73.5962 65.8859 74.0914 62.7968C74.2897 61.5602 73.7443 59.4838 71.4129 58.9287Z" fill="url(#paint6_linear_560_3)"/>
<path d="M56.4159 22.1849C56.703 19.5931 57.5683 16.7122 56.703 13.9759C56.4159 12.3919 56.1288 12.1038 56.2714 11.6722C56.5605 10.9524 58.7206 10.8079 60.8808 11.5276C64.3359 12.8245 66.9296 14.6966 67.6484 18.0091C68.08 20.6009 67.2167 22.3294 65.6327 23.7688C63.9042 25.4973 59.5839 27.6575 56.8476 26.6497C55.6952 25.7854 56.4159 23.3372 56.4159 22.1849Z" fill="url(#paint7_linear_560_3)"/>
<path d="M82.7577 48.9817C88.0772 47.8172 100.297 36.7314 106.453 24.6051C108.523 20.5262 110.947 15.9657 110.083 11.9325C109.507 9.0526 106.703 7.78369 104.4 6.19971C100.511 3.60791 94.8939 5.76807 91.4369 9.51221C87.9818 13.1128 86.2533 15.8491 83.6615 20.7446C78.1888 31.4019 71.5638 50.5552 70.7006 53.5796C69.3569 57.6061 68.4808 62.9656 68.7297 67.7754C69.0728 74.4046 73.3258 81.0864 79.1967 81.0864C81.5005 81.0864 85.7137 80.4883 90.7738 75.8293C91.2928 75.3761 91.8042 74.9139 92.3074 74.443C92.5139 74.2496 92.6656 74.0453 92.8472 73.8376C93.0785 73.5732 93.4022 73.3535 93.6726 73.1298C94.0626 72.8164 94.499 72.4757 94.8204 72.0863C94.9748 71.9005 95.095 71.6805 95.1122 71.4327C95.2594 71.4425 95.4039 71.4187 95.5388 71.3671C95.8871 71.2292 96.0342 70.8682 96.2109 70.572C96.4193 70.2208 96.7308 70.2931 96.9809 69.9968C97.484 69.4111 101.949 66.0027 102.444 62.9136C102.642 61.677 102.097 59.6006 99.7654 59.0455C99.222 60.4883 96.1841 64.129 91.7416 68.222C87.5156 72.1154 82.72 75.6805 79.8638 75.6805C76.6445 75.6805 76.5502 70.799 77.4146 66.4444C78.4727 61.1136 80.3028 55.2561 82.7577 48.9817ZM98.2065 16.5688C100.377 12.551 102.745 10.0638 104.431 10.447C105.483 10.6861 104.851 14.607 104.079 16.75C100.159 27.6404 93.1576 36.2026 86.2558 40.6843C89.5738 33.2374 93.5232 25.2357 98.2065 16.5688Z" fill="#0A66C2"/>
<path d="M80.7589 27.592V26.9072C76.0725 37.5443 71.4145 51.0771 70.7002 53.5793C69.6565 56.7068 68.9028 60.6373 68.7314 64.4912H77.8606C78.9529 59.6868 80.5951 54.5077 82.7573 48.9812C82.5781 49.0204 82.3851 49.0795 82.2222 49.0958C80.9906 49.219 79.5002 48.1199 79.1471 46.5524C78.5367 43.8444 79.7151 42.2865 80.123 42.1184C80.5572 42.6766 83.0131 42.6536 84.9827 41.5177C85.4056 41.2738 85.8309 40.9595 86.2555 40.6838C88.1161 36.5079 90.1992 32.1362 92.4749 27.592H80.7589Z" fill="url(#paint8_radial_560_3)"/>
<path d="M68.7244 64.7408C68.6857 65.7639 68.6785 66.7821 68.7299 67.7749C69.0728 74.4041 73.3258 81.0859 79.1968 81.0859C81.5007 81.0859 85.7139 80.4878 90.774 75.8289C91.293 75.3756 91.8044 74.9134 92.3075 74.4425C92.5141 74.2491 92.6658 74.0448 92.8473 73.8372C93.0786 73.5728 93.4024 73.353 93.6728 73.1293C94.0628 72.8159 94.4992 72.4752 94.8206 72.0858C94.975 71.9 95.0951 71.6801 95.1123 71.4323C95.2595 71.442 95.4041 71.4182 95.539 71.3666C95.8872 71.2288 96.0343 70.8677 96.2111 70.5715C96.4195 70.2203 96.731 70.2926 96.9811 69.9963C97.4842 69.4106 101.949 66.0021 102.444 62.913C102.642 61.6764 102.097 59.6 99.7655 59.0449C99.2222 60.4877 96.1842 64.1285 91.7417 68.2216C89.8769 69.9397 87.9071 71.5735 86.0359 72.8856L86.0203 72.9396C79.3422 78.5033 71.0075 77.238 68.7244 64.7408Z" fill="url(#paint9_linear_560_3)"/>
<path d="M110.084 11.9324C109.508 9.05248 106.703 7.78369 104.4 6.19971C100.511 3.60791 94.8943 5.76807 91.4373 9.51221C87.9822 13.1128 86.2537 15.8491 83.6619 20.7446C78.1892 31.4019 71.5642 50.5552 70.7009 53.5796C69.6346 56.7749 68.8734 60.8079 68.7246 64.7413C71.0077 77.2385 79.3424 78.5038 86.0205 72.9401L86.0361 72.8861C83.6671 74.5474 81.4598 75.6805 79.8641 75.6805C76.6449 75.6805 76.5505 70.799 77.4149 66.4444C78.7207 59.8655 81.1501 52.5189 84.5556 44.5255C88.1745 36.0312 92.715 26.7321 98.2068 16.5689C100.378 12.551 102.745 10.0638 104.431 10.4469C105.198 10.6213 105.07 12.7485 104.647 14.7193L110.179 14.9807C110.309 13.9429 110.296 12.9217 110.084 11.9324Z" fill="url(#paint10_radial_560_3)"/>
<path d="M101.114 52.7139C99.2434 57.4668 97.9465 62.6504 98.3782 67.834C98.3782 76.1875 103.995 81.084 110.907 81.084C113.211 81.084 117.47 80.3697 122.53 75.7108C123.049 75.2576 123.56 74.7954 124.063 74.3245C124.27 74.1311 124.422 73.9268 124.603 73.7191C124.835 73.4547 125.158 73.235 125.429 73.0112C125.819 72.6979 126.255 72.3572 126.577 71.9678C126.731 71.782 126.851 71.562 126.868 71.3142C127.015 71.324 127.16 71.3002 127.295 71.2485C127.643 71.1107 127.79 70.7496 127.967 70.4535C128.175 70.1023 128.487 70.1746 128.737 69.8783C129.24 69.2926 133.705 65.884 134.2 62.7949C134.398 61.5583 133.853 59.4819 131.522 58.9269C130.978 60.3696 127.94 64.0105 123.498 68.1035C119.706 71.5964 115.29 75.6742 111.838 75.5316C106.989 75.3312 106.636 71.0781 107.022 67.5057C107.14 66.4248 107.512 64.9895 108.008 63.4537C110.64 62.6123 115.394 60.7767 120.24 57.1625C126.501 52.4917 128.068 49.8138 129.612 45.1278C129.975 44.0253 130.062 41.9121 130.062 40.7608C130.206 39.6084 130.062 38.8887 128.909 38.0244C128.189 37.4483 123.868 34.4239 122.718 33.7041C121.277 32.9834 119.982 31.832 118.253 31.832C116.38 31.832 114.509 33.416 113.357 34.5674C108.029 39.3203 103.564 45.9453 101.114 52.7139ZM126.462 41.1924C126.894 41.624 126.228 43.0602 125.939 43.7799C124.246 46.8867 119.457 51.6465 114.827 54.0507C113.575 54.7007 112.419 55.0485 111.348 55.344C111.7 54.6676 112.012 54.1321 112.251 53.8106C115.428 49.5356 124.499 39.7198 126.462 41.1924Z" fill="#0A66C2"/>
<path d="M129.38 45.0437C128.175 44.605 127.003 44.2201 125.73 44.1133C123.896 47.2185 119.301 51.7277 114.827 54.0508C113.575 54.7008 112.42 55.0486 111.349 55.3441C110.315 57.3334 108.938 60.573 108.008 63.4539C110.641 62.6124 115.394 60.7769 120.24 57.1626C126.502 52.4918 128.068 49.814 129.612 45.1279L129.613 45.1231C129.536 45.0957 129.455 45.0714 129.38 45.0437Z" fill="url(#paint11_linear_560_3)"/>
<path d="M107.023 67.5052C107.434 63.7075 110.935 55.5812 112.251 53.8102C113.322 52.3696 115.066 50.3004 116.977 48.2454C113.354 46.8032 109.273 45.5173 105.628 43.7197C103.783 46.5819 102.231 49.6279 101.115 52.7135C99.6926 56.3258 98.6074 60.1873 98.3555 64.1079C98.6396 79.4363 110.259 79.4739 117.913 72.9093L117.914 72.8953C115.776 74.4795 113.671 75.6069 111.839 75.5312C106.99 75.3308 106.636 71.0777 107.023 67.5052Z" fill="url(#paint12_radial_560_3)"/>
<path d="M131.522 58.9268C130.979 60.3695 127.94 64.0103 123.498 68.1033C119.707 71.5963 115.29 75.6741 111.839 75.5315C111.071 75.4998 110.451 75.3369 109.893 75.1207C109.078 76.9713 108.226 78.8034 107.32 80.6085C108.458 80.919 109.661 81.0839 110.908 81.0839C113.212 81.0839 117.47 80.3695 122.53 75.7106C123.049 75.2573 123.561 74.7952 124.064 74.3242C124.27 74.1309 124.422 73.9265 124.604 73.7189C124.835 73.4545 125.159 73.2347 125.429 73.011C125.819 72.6976 126.255 72.3569 126.577 71.9675C126.731 71.7817 126.851 71.5618 126.869 71.314C127.016 71.3237 127.16 71.2999 127.295 71.2483C127.643 71.1105 127.791 70.7494 127.967 70.4533C128.176 70.1021 128.487 70.1743 128.737 69.8781C129.24 69.2924 133.705 65.8839 134.2 62.7948C134.399 61.5582 133.853 59.4818 131.522 58.9268Z" fill="url(#paint13_linear_560_3)"/>
<path d="M138.451 77.1983C142.34 80.0792 145.221 81.3751 152.133 81.3751C159.334 81.3751 166.246 77.3428 169.127 74.7501C169.272 74.6065 169.414 74.6065 169.559 74.462C169.703 74.3184 169.559 74.1739 169.703 74.0303C169.848 73.8858 169.991 73.8858 170.135 73.8858C170.567 73.8858 170.135 73.5977 170.28 73.5977C170.422 73.4541 170.567 73.4542 170.567 73.4542C170.711 73.4542 170.856 73.3096 170.856 73.3096C170.998 73.166 171.143 73.0225 171.287 72.7344C174.311 69.71 179.496 63.085 178.776 56.749C178.776 56.461 178.631 55.5967 178.2 55.7403C177.912 55.7403 177.912 56.1729 177.912 56.461C176.328 63.2295 171.432 67.4469 166.678 70.903C162.791 73.7829 157.03 75.943 152.422 75.943C149.397 75.943 146.373 75.0798 145.508 74.2155C145.366 73.9274 144.934 73.9274 144.645 73.7829C144.213 73.6393 142.485 72.1989 141.621 71.1911C140.756 70.1832 140.18 68.8864 140.18 68.7428C140.18 68.5983 140.18 68.5983 140.18 68.4548L140.325 68.3112C140.18 68.1667 140.037 67.8786 140.037 67.735C139.893 67.4469 139.604 66.7262 139.604 66.4381C139.172 65.4303 138.885 63.5582 138.885 62.4059C138.596 58.2301 139.604 51.42 144.069 42.7793C144.213 42.6358 144.5 41.627 144.645 41.627C145.077 41.627 145.077 40.9073 145.221 40.6192C145.366 40.1875 145.508 39.4668 145.942 39.1787C146.229 38.8907 146.229 38.7471 146.373 38.459C146.518 38.3155 146.518 38.171 146.66 38.171C146.805 38.0274 146.805 37.7393 146.805 37.5948C146.805 37.3067 146.805 37.4512 147.094 37.3067C147.237 37.0186 147.381 36.7305 147.526 36.4424C147.668 36.2989 147.813 36.1553 147.957 36.1553V35.4346C148.534 35.4346 148.389 34.8584 148.534 34.5704C148.678 34.4268 149.11 34.5704 149.11 34.2823C149.11 33.8507 148.965 33.8506 149.397 33.7071C149.973 33.419 150.405 32.5547 150.694 32.1221C152.709 29.0987 155.301 26.5059 157.75 23.9141C162.024 19.5191 167.718 15.4831 172.958 14.1838C173.836 13.9731 174.645 13.7921 175.42 13.6225C174.939 14.3249 174.484 15.0456 174.113 15.8153C172.982 18.1564 172.421 20.7638 172.008 21.8975C171.575 23.9141 170.856 28.2344 171.864 28.378C172.295 28.378 173.303 27.0821 174.455 25.9298C176.76 23.7696 179.784 20.8897 180.215 20.6016C180.36 20.6016 180.791 20.4571 180.936 20.3135C180.936 20.0255 181.08 20.0255 181.225 19.8819C181.657 19.5938 182.088 19.1612 182.375 18.7296C182.375 18.585 182.52 18.2969 182.664 18.1534C182.951 18.1534 183.096 18.1534 183.241 18.0088C183.961 17.001 188.282 14.1212 189.145 13.4014C190.584 11.8165 190.729 10.0889 189.577 7.64069C188.713 5.48053 186.409 3.60846 185.688 2.88776C184.969 2.31158 184.535 1.87995 183.672 1.44831C182.664 1.01569 182.233 1.30377 182.088 1.44831C181.944 1.73639 181.944 2.31159 181.801 3.46393C181.652 5.09467 180.838 6.57928 179.762 8.05498C178.041 6.62164 176.321 5.33063 174.6 4.04009C173.735 3.46391 172.871 3.03227 171.864 2.74419C165.959 1.73637 159.911 5.62407 155.877 8.64849C150.431 12.8133 144.629 19.1611 140.03 26.9483C131.909 40.7029 130.2 55.1634 131.89 64.3869C132.783 69.2598 134.605 74.1607 138.451 77.1983Z" fill="#0A66C2"/>
<path d="M156.674 22.951C157.082 23.2187 157.488 23.4979 157.896 23.7723C162.153 19.4333 167.775 15.4692 172.958 14.1841C173.843 13.9717 174.637 13.8083 175.39 13.664C176.765 11.6456 178.452 9.85225 179.762 8.05525C178.041 6.62191 176.321 5.33101 174.6 4.04047C173.735 3.46429 172.871 3.03265 171.864 2.74457C165.959 1.73675 159.911 5.62445 155.877 8.64887C153.578 10.407 151.219 12.5748 148.91 15.055C150.8 18.3717 153.373 20.7868 156.674 22.951Z" fill="url(#paint14_linear_560_3)"/>
<path d="M145.508 74.2157C145.366 73.9276 144.934 73.9276 144.645 73.7831C144.214 73.6395 142.485 72.1991 141.622 71.1912C140.757 70.1834 140.18 68.8866 140.18 68.743C140.18 68.5985 140.18 68.5985 140.18 68.4549L140.325 68.3114C140.18 68.1668 140.038 67.8787 140.038 67.7352C139.893 67.4471 139.604 66.7264 139.604 66.4383C139.173 65.4305 138.885 63.5584 138.885 62.4061C138.596 58.2303 139.604 51.4201 144.069 42.7795C144.214 42.636 144.501 41.6272 144.645 41.6272C145.077 41.6272 145.077 40.9074 145.221 40.6193C145.366 40.1877 145.508 39.467 145.942 39.1789C146.229 38.8908 146.229 38.7473 146.374 38.4592C146.518 38.3156 146.518 38.1711 146.661 38.1711C146.805 38.0276 146.805 37.7395 146.805 37.5949C146.805 37.3069 146.805 37.4514 147.094 37.3069C147.237 37.0188 147.382 36.7307 147.526 36.4426C147.669 36.2991 147.813 36.1555 147.958 36.1555V35.4348C148.534 35.4348 148.389 34.8586 148.534 34.5705C148.678 34.427 149.11 34.5706 149.11 34.2825C149.11 33.8508 148.966 33.8508 149.397 33.7073C149.973 33.4192 150.405 32.5549 150.694 32.1223C152.405 29.5559 154.529 27.3024 156.631 25.0939C155.781 23.7177 154.874 22.3776 153.798 21.1064C152.125 19.1322 150.338 17.2806 148.596 15.3965C145.548 18.7186 142.599 22.598 140.03 26.9484C133.238 38.4528 130.942 50.4388 131.358 59.4536C133.263 73.2148 144.598 75.9349 151.913 75.9349L151.913 75.9258C149.065 75.8364 146.325 75.0312 145.508 74.2157Z" fill="url(#paint15_radial_560_3)"/>
<path d="M198.711 68.2679C198.703 70.4519 198.916 72.5904 199.491 74.4593C200.644 78.2034 202.695 80.9398 207.591 80.9398C210.788 80.9398 213.406 79.2645 218.026 75.7111C218.572 75.291 219.056 74.7957 219.559 74.3248C219.766 74.1314 219.918 73.9271 220.099 73.7194C220.33 73.455 220.654 73.2353 220.925 73.0115C221.315 72.6982 221.751 72.3575 222.072 71.9681C222.227 71.7823 222.347 71.5623 222.364 71.3145C222.511 71.3243 222.656 71.3005 222.791 71.2488C223.139 71.111 223.286 70.7499 223.463 70.4538C223.671 70.1026 223.983 70.1749 224.233 69.8786C224.736 69.2929 229.201 65.8843 229.696 62.7952C229.894 61.5586 229.349 59.4822 227.017 58.9272C226.474 60.3699 223.436 64.0108 218.994 68.1038C214.768 71.9971 211.054 75.2811 209.302 75.2546C202.958 75.1585 219.653 45.9456 220.517 44.3607C221.38 42.6331 223.398 39.6087 223.398 37.7366C223.54 36.2962 221.814 35.5765 220.372 34.5677C219.364 33.848 215.907 31.2562 214.612 31.6878C213.82 31.952 213.251 32.5236 212.787 33.2308C212.693 33.374 211.329 35.5292 210.112 37.6607C207.218 35.1217 202.669 33.1282 199.06 33.1282C196.61 33.1282 193.011 34.7122 189.554 38.1683C186.241 41.4808 184.081 44.7933 181.776 48.8255C178.898 54.1536 174.765 65.0384 176.118 72.6176C176.921 77.114 179.053 80.3444 182.695 80.8C187.436 81.3931 191.793 76.153 193.734 73.9761C195.354 72.1602 197.092 70.2301 198.711 68.2679ZM185.497 74.7008C184.201 74.6627 184.446 72.1202 184.849 69.0948C185.383 65.0906 187.394 60.2015 189.122 56.8909C193.153 49.2572 195.036 46.3259 199.214 43.445C200.926 42.2771 202.847 41.9531 204.338 41.9718C205.305 41.9838 206.403 42.259 207.463 42.7042C205.917 45.5808 204.497 47.8729 202.356 52.819C197.234 61.873 187.104 74.5783 185.497 74.7008Z" fill="#0A66C2"/>
<path d="M213.482 72.9379L213.483 72.9355C211.691 74.356 210.222 75.2684 209.302 75.2545C202.958 75.1584 219.653 45.9456 220.516 44.3607C221.38 42.6331 223.397 39.6087 223.397 37.7366C223.54 36.2962 221.813 35.5765 220.372 34.5677C219.364 33.848 215.907 31.2562 214.612 31.6878C213.819 31.9519 213.25 32.5235 212.786 33.2308C212.654 33.4317 210.015 37.5987 208.799 40.0983C206.302 45.2338 204.608 47.0582 200.933 56.2402C200.057 58.4312 199.308 61.3966 198.938 64.5019C199.668 77.0225 206.845 78.7781 213.482 72.9379Z" fill="url(#paint16_radial_560_3)"/>
<path d="M227.017 58.9268C226.474 60.3695 223.436 64.0103 218.993 68.1033C216.986 69.9524 215.103 71.6503 213.483 72.9351L213.482 72.9375C206.845 78.7777 199.669 77.0221 198.939 64.5015C198.531 67.9227 198.585 71.5154 199.491 74.4589C200.643 78.203 202.694 80.9393 207.591 80.9393C210.788 80.9393 213.406 79.264 218.026 75.7106C218.572 75.2904 219.056 74.7952 219.559 74.3242C219.766 74.1308 219.917 73.9265 220.099 73.7189C220.33 73.4545 220.654 73.2347 220.924 73.011C221.314 72.6976 221.751 72.3569 222.072 71.9675C222.227 71.7817 222.347 71.5618 222.364 71.314C222.511 71.3237 222.656 71.2999 222.791 71.2483C223.139 71.1105 223.286 70.7494 223.463 70.4532C223.671 70.102 223.983 70.1743 224.233 69.878C224.736 69.2923 229.2 65.8839 229.696 62.7948C229.894 61.5582 229.349 59.4818 227.017 58.9268Z" fill="url(#paint17_linear_560_3)"/>
<path d="M220.372 34.5677C219.365 33.848 215.908 31.2562 214.613 31.6878C213.82 31.9519 213.251 32.5235 212.787 33.2308C212.693 33.3738 211.329 35.5292 210.112 37.6607C210.998 38.4382 211.743 39.2629 212.24 40.1021C213.467 42.173 212.512 45.2249 211.796 46.398C211.157 44.8814 209.374 43.5069 207.463 42.7042C206.269 44.9276 205.151 46.8011 203.719 49.8111C207.635 51.0252 210.56 54.6199 214.333 55.967C217.269 50.093 220.17 44.9973 220.517 44.3607C221.38 42.6331 223.398 39.6087 223.398 37.7367C223.54 36.2962 221.814 35.5765 220.372 34.5677Z" fill="url(#paint18_radial_560_3)"/>
<path d="M212.24 40.1018C210.119 36.5215 203.775 33.1279 199.06 33.1279C196.611 33.1279 193.011 34.7119 189.554 38.168C186.241 41.4805 184.081 44.793 181.777 48.8252C179.902 52.2953 177.504 58.1213 176.427 63.857C175.871 77.9259 182.322 78.5754 187.173 73.449L187.174 73.4453C186.383 74.2217 185.793 74.6778 185.497 74.7004C184.201 74.6622 184.446 72.1197 184.849 69.0945C185.383 65.0903 187.394 60.2011 189.122 56.8906C193.154 49.2568 195.036 46.3254 199.214 43.4446C200.927 42.2767 202.847 41.9526 204.339 41.9713C207.048 42.0054 210.803 44.0401 211.796 46.3977C212.512 45.2246 213.467 42.1727 212.24 40.1018Z" fill="url(#paint19_radial_560_3)"/>
<path d="M176.427 63.8573C175.851 66.9286 175.646 69.9744 176.118 72.6174C176.921 77.1139 179.053 80.3442 182.695 80.7999C187.435 81.3929 191.793 76.1528 193.734 73.9761C195.354 72.1602 197.092 70.23 198.711 68.2678C198.727 63.8899 199.704 59.3125 200.934 56.2401C201.456 54.9338 201.927 53.8197 202.377 52.7822C198.204 60.171 190.679 70.0058 187.174 73.4456L187.173 73.4492C182.322 78.5757 175.87 77.9261 176.427 63.8573Z" fill="url(#paint20_linear_560_3)"/>
<path d="M249.265 71.1462C249.985 75.7555 253.809 81.2282 259.518 81.2282C261.822 81.2282 265.274 80.1987 268.751 76.4913C269.222 75.9887 269.689 75.4821 270.146 74.9654C270.333 74.7533 270.464 74.5354 270.625 74.3114C270.831 74.0263 271.132 73.7768 271.38 73.5283C271.738 73.1793 272.14 72.7986 272.423 72.3804C272.559 72.1808 272.658 71.9505 272.651 71.7021C272.799 71.6978 272.941 71.6605 273.07 71.5962C273.404 71.4258 273.516 71.0524 273.663 70.7408C273.837 70.3714 274.154 70.4138 274.375 70.095C274.82 69.4642 279.281 64.6631 279.614 62.7946C279.833 61.5616 279.267 59.4816 276.935 58.9266C276.392 60.3693 273.103 64.4621 268.987 68.8833C265.016 73.1481 262.491 75.2539 260.144 75.2539C257.485 75.2539 258.594 69.4298 260.426 65.1658C262.995 59.1905 266.664 52.5652 268.851 47.2409C270.003 44.5045 271.442 41.4801 270.866 39.32C270.579 38.3122 269.858 36.2956 268.13 35.2878C265.683 33.5592 265.106 33.1276 263.954 32.8395C262.37 32.4069 261.218 33.4157 260.642 34.4235C260.467 34.7018 260.094 35.3865 259.632 36.2659C257.223 38.5633 253.536 41.5164 249.049 46.6298C247.436 48.4678 245.13 50.8278 242.66 53.4392C243.492 51.6065 244.23 49.7813 244.8 47.817C245.52 45.2242 246.96 40.6158 245.808 37.8795C244.513 34.8551 241.487 32.8395 239.472 31.9752C238.608 31.5436 236.591 30.8229 236.159 31.5436C235.872 31.8317 236.304 32.4069 236.304 33.7038C236.304 36.2956 235.151 41.192 234.431 43.0641C230.831 52.8571 224.495 62.9372 224.495 70.4274C224.495 74.6032 226.222 77.6266 229.103 80.0758C229.966 80.652 232.27 81.6598 232.847 80.7946C233.136 80.363 232.415 79.6442 232.702 77.4841C232.841 76.6543 233.344 75.0035 234.015 73.0514C234.996 71.2074 236.318 69.7996 238.168 67.5864C243.546 61.1536 247.747 57.0561 251.009 53.54C251.591 52.9124 252.116 52.3454 252.645 51.7739C252.396 52.4053 252.213 52.8979 252.145 53.1452C249.841 60.2009 248.399 65.0973 249.265 71.1462Z" fill="#0A66C2"/>
<path d="M249.049 46.6297C247.436 48.4677 245.13 50.8275 242.661 53.439C241.843 55.2412 240.936 57.0507 240.007 59.0081C239.891 59.2537 238.577 61.4883 237.144 64.8673C236.054 67.4381 234.889 70.5075 234.015 73.0515C234.996 71.2074 236.318 69.7995 238.168 67.5862C243.546 61.1535 247.747 57.0559 251.009 53.5397C251.591 52.9122 252.116 52.3452 252.645 51.7737C253.992 48.3616 257.538 40.3616 258.451 38.5571C258.869 37.7307 259.276 36.942 259.632 36.2656C257.223 38.5629 253.536 41.5161 249.049 46.6297Z" fill="url(#paint21_linear_560_3)"/>
<path d="M264.889 72.937L264.892 72.9111C263.058 74.468 261.566 75.2535 260.145 75.2535C257.486 75.2535 258.594 69.4296 260.427 65.1654C262.995 59.1901 266.664 52.5648 268.851 47.2406C270.003 44.5043 271.443 41.4798 270.867 39.3197C270.58 38.3119 269.859 36.2953 268.13 35.2875C265.683 33.559 265.107 33.1273 263.955 32.8392C262.371 32.4066 261.218 33.4154 260.642 34.4232C260.334 34.9157 259.413 36.6564 258.451 38.557C257.369 40.6953 252.578 51.5609 252.146 53.1449C250.711 57.5371 249.613 61.0923 249.195 64.6098C249.224 76.6952 259.157 79.0385 264.889 72.937Z" fill="url(#paint22_radial_560_3)"/>
<path d="M276.935 58.9268C276.392 60.3695 273.103 64.4622 268.987 68.8835C267.421 70.5652 266.086 71.8981 264.892 72.9116L264.889 72.9375C259.157 79.0389 249.224 76.6957 249.195 64.6104C248.942 66.7435 248.938 68.8629 249.265 71.1464C249.985 75.7558 253.809 81.2284 259.519 81.2284C261.823 81.2284 265.274 80.1989 268.751 76.4915C269.222 75.9889 269.69 75.4822 270.146 74.9656C270.333 74.7534 270.465 74.5357 270.626 74.3117C270.831 74.0265 271.132 73.777 271.38 73.5285C271.738 73.1795 272.141 72.7988 272.423 72.3806C272.559 72.1811 272.658 71.9506 272.652 71.7023C272.799 71.698 272.941 71.6606 273.07 71.5963C273.404 71.4261 273.516 71.0526 273.664 70.741C273.838 70.3716 274.155 70.414 274.376 70.0952C274.821 69.4644 279.282 64.6632 279.614 62.7948C279.833 61.5618 279.267 59.4818 276.935 58.9268Z" fill="url(#paint23_linear_560_3)"/>
<path d="M232.702 77.484C233.021 75.5728 235.218 69.4106 237.144 64.8675C238.577 61.4885 239.891 59.2538 240.007 59.0083C241.88 55.0604 243.67 51.7128 244.8 47.817C245.52 45.2242 246.96 40.6158 245.808 37.8795C244.513 34.8551 241.487 32.8395 239.472 31.9752C238.608 31.5436 236.591 30.8229 236.159 31.5436C235.872 31.8317 236.304 32.4069 236.304 33.7037C236.304 36.2955 235.151 41.192 234.431 43.0641C230.831 52.8571 224.495 62.9372 224.495 70.4274C224.495 74.6032 226.222 77.6266 229.103 80.0758C229.966 80.652 232.27 81.6598 232.847 80.7946C233.136 80.3629 232.415 79.6442 232.702 77.484Z" fill="url(#paint24_linear_560_3)"/>
<path d="M329.865 37.7362C329.721 37.7362 328.858 38.0243 327.85 38.3124C325.69 38.8885 322.809 39.1756 319.783 38.8885C316.039 38.4559 314.744 37.5917 314.168 37.4481C313.737 37.3036 313.447 37.16 313.16 36.8719C312.727 36.7284 312.584 36.1522 312.44 35.7196C312.151 35.1434 311.287 34.9999 310.711 34.7118C310.536 34.6242 310.304 34.4862 310.05 34.3374C309.059 33.3813 307.857 32.7095 306.449 32.6145C306.083 32.5898 305.253 32.6882 305.619 33.6213C307.949 39.5607 307.365 48.3221 304.841 55.5504C300.933 66.7402 293.136 74.8605 289.19 74.8605C287.258 74.8605 286.196 72.9417 285.951 70.3702C285.758 68.3434 285.92 67.0234 286.366 64.7087C286.508 64.1345 286.805 62.5057 287.236 62.2186C287.526 61.9296 287.094 61.4979 287.236 61.0663C287.526 61.0663 287.381 60.6346 287.957 60.7772C287.813 60.3456 287.957 60.0584 288.246 59.7694C288.533 59.4823 288.389 58.7616 288.533 58.1854C290.549 53.1454 294.11 48.1586 297.716 44.2056C299.505 42.2444 300.51 41.1352 300.397 40.465C300.201 39.3009 296.742 36.1522 295.158 35.288C292.567 33.8475 292.278 32.6952 289.973 32.2635C288.533 31.9754 287.381 32.9833 285.51 36.2958C285.221 36.8719 284.789 38.1678 284.069 38.3124C283.926 38.6004 284.5 39.0321 284.069 39.1756C284.069 38.4559 283.637 39.3202 283.637 39.3202C283.205 39.6082 283.205 39.4637 283.061 40.0399C282.774 40.9042 282.34 41.7684 281.766 42.4881C278.02 48.8251 275.428 55.5936 275.141 62.9374C274.852 66.1073 275.428 68.9862 276.293 72.0116C277.928 77.737 281.721 81.3201 288.246 80.6522C290.637 80.4076 295.657 78.3872 300.249 73.4892C305.633 67.7462 308.723 61.7594 310.29 56.7137C311.706 51.7597 312.703 47.281 312.781 42.2632C312.783 42.1269 312.791 41.9508 312.799 41.7572C314.589 42.4165 316.485 42.9024 319.079 43.0414C322.415 43.2201 326.341 41.7523 327.349 41.0326C328.213 40.5999 328.713 39.3202 329.434 38.744C329.576 38.6004 330.153 38.1678 330.297 37.8797C330.584 37.7362 330.297 37.5916 329.865 37.7362Z" fill="#0A66C2"/>
<path d="M329.866 37.7366C329.721 37.7366 328.858 38.0246 327.85 38.3127C325.69 38.8889 322.809 39.176 319.784 38.8889C316.04 38.4563 314.745 37.592 314.169 37.4485C313.737 37.3039 313.448 37.1604 313.161 36.8723C312.727 36.7288 312.585 36.1526 312.44 35.72C312.151 35.1438 311.288 35.0003 310.712 34.7122C310.537 34.6246 310.304 34.4867 310.051 34.3379C310.823 35.0829 311.471 35.9962 311.969 36.9714C312.9 38.7953 312.847 40.6787 312.8 41.7577C314.589 42.4169 316.486 42.9027 319.08 43.0416C322.415 43.2203 326.342 41.7527 327.35 41.033C328.213 40.6004 328.714 39.3206 329.434 38.7444C329.577 38.6008 330.153 38.1682 330.298 37.8801C330.585 37.7365 330.298 37.592 329.866 37.7366Z" fill="url(#paint25_linear_560_3)"/>
<path d="M293.311 72.9919C291.747 74.186 290.311 74.8605 289.19 74.8605C287.258 74.8605 286.196 72.9417 285.951 70.3702C285.758 68.3434 285.921 67.0234 286.366 64.7086C286.508 64.1344 286.805 62.5057 287.237 62.2186C287.526 61.9296 287.094 61.4979 287.237 61.0663C287.526 61.0663 287.381 60.6346 287.957 60.7772C287.813 60.3456 287.957 60.0584 288.246 59.7694C288.534 59.4823 288.389 58.7616 288.534 58.1854C290.549 53.1454 294.11 48.1584 297.716 44.2056C299.505 42.2444 300.51 41.1352 300.397 40.465C300.201 39.3009 296.743 36.1522 295.159 35.288C292.567 33.8475 292.278 32.6952 289.973 32.2635C288.534 31.9754 287.381 32.9833 285.51 36.2958C285.221 36.8719 284.789 38.1678 284.069 38.3124C283.926 38.6004 284.5 39.0321 284.069 39.1756C284.069 38.4559 283.637 39.3202 283.637 39.3202C283.205 39.6082 283.205 39.4637 283.061 40.0399C282.774 40.9042 282.34 41.7684 281.766 42.4881C278.02 48.8251 275.428 55.5936 275.141 62.9374C275.089 63.5079 275.095 64.0603 275.095 64.6145C276.669 77.1027 287.137 78.2422 293.311 72.9919Z" fill="url(#paint26_radial_560_3)"/>
<path d="M337.93 68.2679C337.922 70.4519 338.135 72.5904 338.71 74.4593C339.862 78.2034 341.913 80.9398 346.81 80.9398C350.007 80.9398 352.625 79.2645 357.244 75.7111C357.791 75.291 358.275 74.7957 358.778 74.3248C358.985 74.1314 359.136 73.9271 359.318 73.7194C359.549 73.455 359.873 73.2353 360.143 73.0115C360.533 72.6982 360.97 72.3575 361.291 71.9681C361.446 71.7823 361.566 71.5623 361.583 71.3145C361.73 71.3243 361.875 71.3005 362.009 71.2488C362.358 71.111 362.505 70.7499 362.682 70.4538C362.89 70.1026 363.202 70.1749 363.452 69.8786C363.955 69.2929 368.42 65.8843 368.915 62.7952C369.113 61.5586 368.568 59.4822 366.236 58.9272C365.693 60.3699 362.655 64.0108 358.212 68.1038C353.986 71.9971 350.273 75.2811 348.521 75.2546C342.177 75.1585 358.872 45.9456 359.735 44.3607C360.599 42.6331 362.616 39.6087 362.616 37.7366C362.759 36.2962 361.032 35.5765 359.591 34.5677C358.583 33.848 355.126 31.2562 353.831 31.6878C353.038 31.952 352.47 32.5236 352.006 33.2308C351.912 33.374 350.548 35.5292 349.33 37.6607C346.437 35.1217 341.888 33.1282 338.278 33.1282C335.829 33.1282 332.23 34.7122 328.773 38.1683C325.46 41.4808 323.3 44.7933 320.995 48.8255C318.116 54.1536 313.984 65.0384 315.337 72.6176C316.14 77.114 318.272 80.3444 321.914 80.8C326.654 81.3931 331.012 76.153 332.953 73.9761C334.573 72.1602 336.311 70.2301 337.93 68.2679ZM324.716 74.7008C323.419 74.6627 323.664 72.1202 324.068 69.0948C324.602 65.0906 326.612 60.2015 328.341 56.8909C332.372 49.2572 334.255 46.3259 338.432 43.445C340.145 42.2771 342.066 41.9531 343.557 41.9718C344.524 41.9838 345.622 42.259 346.682 42.7042C345.136 45.5808 343.716 47.8729 341.575 52.819C336.453 61.873 326.322 74.5783 324.716 74.7008Z" fill="#0A66C2"/>
<path d="M352.701 72.9379L352.701 72.9355C350.91 74.356 349.44 75.2684 348.521 75.2545C342.177 75.1584 358.872 45.9456 359.735 44.3607C360.598 42.6331 362.616 39.6087 362.616 37.7366C362.758 36.2962 361.032 35.5765 359.59 34.5677C358.583 33.848 355.126 31.2562 353.831 31.6878C353.038 31.9519 352.469 32.5235 352.005 33.2308C351.873 33.4317 349.234 37.5987 348.018 40.0983C345.52 45.2338 343.826 47.0582 340.152 56.2402C339.275 58.4312 338.527 61.3966 338.157 64.5019C338.887 77.0225 346.064 78.7781 352.701 72.9379Z" fill="url(#paint27_radial_560_3)"/>
<path d="M366.236 58.9268C365.693 60.3695 362.655 64.0103 358.212 68.1033C356.205 69.9524 354.322 71.6503 352.702 72.9351L352.701 72.9375C346.064 78.7777 338.887 77.0221 338.157 64.5015C337.75 67.9227 337.804 71.5154 338.71 74.4589C339.862 78.203 341.913 80.9393 346.81 80.9393C350.006 80.9393 352.625 79.264 357.244 75.7106C357.79 75.2904 358.275 74.7952 358.778 74.3242C358.984 74.1308 359.136 73.9265 359.318 73.7189C359.549 73.4545 359.873 73.2347 360.143 73.011C360.533 72.6976 360.97 72.3569 361.291 71.9675C361.445 71.7817 361.565 71.5618 361.583 71.314C361.73 71.3237 361.874 71.2999 362.009 71.2483C362.358 71.1105 362.505 70.7494 362.681 70.4532C362.89 70.102 363.201 70.1743 363.451 69.878C363.954 69.2923 368.419 65.8839 368.914 62.7948C369.113 61.5582 368.567 59.4818 366.236 58.9268Z" fill="url(#paint28_linear_560_3)"/>
<path d="M359.591 34.5677C358.583 33.848 355.126 31.2562 353.831 31.6878C353.039 31.9519 352.47 32.5235 352.006 33.2308C351.912 33.3738 350.548 35.5292 349.331 37.6607C350.217 38.4382 350.961 39.2629 351.459 40.1021C352.686 42.173 351.731 45.2249 351.015 46.398C350.376 44.8814 348.593 43.5069 346.682 42.7042C345.488 44.9276 344.369 46.8011 342.938 49.8111C346.853 51.0252 349.778 54.6199 353.552 55.967C356.488 50.093 359.389 44.9973 359.736 44.3607C360.599 42.6331 362.617 39.6087 362.617 37.7367C362.759 36.2962 361.033 35.5765 359.591 34.5677Z" fill="url(#paint29_radial_560_3)"/>
<path d="M351.459 40.1018C349.337 36.5215 342.993 33.1279 338.279 33.1279C335.829 33.1279 332.23 34.7119 328.773 38.168C325.46 41.4805 323.3 44.793 320.995 48.8252C319.12 52.2953 316.723 58.1213 315.646 63.857C315.089 77.9259 321.541 78.5754 326.391 73.449L326.393 73.4453C325.602 74.2217 325.012 74.6778 324.716 74.7004C323.419 74.6622 323.664 72.1197 324.068 69.0945C324.602 65.0903 326.613 60.2011 328.341 56.8906C332.372 49.2568 334.255 46.3254 338.433 43.4446C340.145 42.2767 342.066 41.9526 343.557 41.9713C346.267 42.0054 350.022 44.0401 351.015 46.3977C351.731 45.2246 352.685 42.1727 351.459 40.1018Z" fill="url(#paint30_radial_560_3)"/>
<path d="M315.646 63.8573C315.069 66.9286 314.865 69.9744 315.337 72.6174C316.14 77.1139 318.272 80.3442 321.914 80.7999C326.654 81.3929 331.012 76.1528 332.953 73.9761C334.573 72.1602 336.31 70.23 337.93 68.2678C337.946 63.8899 338.923 59.3125 340.153 56.2401C340.675 54.9338 341.146 53.8197 341.596 52.7822C337.423 60.171 329.897 70.0058 326.393 73.4456L326.391 73.4492C321.54 78.5757 315.089 77.9261 315.646 63.8573Z" fill="url(#paint31_linear_560_3)"/>
<path d="M386.324 49.8043C386.2 49.6274 386.082 49.4552 385.954 49.2758C384.766 47.6092 383.748 46.2144 382.9 44.9516C384.816 43.9919 387.399 42.0019 388.234 41.0922C390.61 38.5037 391.137 35.8571 391.415 33.9648C391.788 31.4282 388.067 28.5455 387.349 28.2574C385.189 27.105 381.715 27.0604 380.275 27.9246C376.825 30.2773 374.995 34.0927 375.019 37.5996C375.043 41.2188 376.347 44.0926 378.06 47.3849C378.987 49.1663 380.301 51.2117 380.667 52.1181C380.721 52.2531 380.763 52.3659 380.815 52.4972C380.324 52.7609 379.828 53.0334 379.329 53.3107C379.237 53.3621 379.125 53.4197 379.036 53.4703C379.036 53.4699 379.036 53.4706 379.036 53.4703C375.373 55.5187 371.706 57.779 369.904 58.6266C369.184 58.9157 369.041 59.6344 368.607 59.6344C368.176 59.6344 367.744 59.9235 367.457 60.2106C366.736 60.9313 365.578 61.5693 362.587 64.5008C359.083 67.9361 358.098 71.1277 358.098 74.0086C358.098 78.0418 362.131 81.6414 370.338 81.6414C377.395 81.6414 383.443 80.202 388.053 76.3133C388.34 76.1688 388.484 75.7371 388.771 75.4481C388.916 75.3055 389.205 75.4481 389.348 75.3055C389.492 75.1609 389.492 74.8719 389.637 74.5848C389.781 74.4403 390.068 74.2957 390.213 74.1532C390.356 73.8641 390.355 73.7196 390.5 73.4325C390.645 73.2879 390.932 73.1454 391.076 73.0008C391.508 72.4246 393.525 69.2567 393.236 65.2235C393.015 61.7736 392.018 59.013 390.182 55.8099C390.162 55.7754 389.691 54.9572 388.913 53.7134C395.638 50.0007 403.626 45.4687 404.326 45.2059C404.469 45.0623 405.045 45.0623 405.189 44.9178C405.189 44.6297 405.334 44.6297 405.621 44.6297C406.055 44.4862 406.486 44.1981 406.918 44.0535H407.926C408.07 43.91 408.215 43.7655 408.357 43.6219C409.078 43.1903 412.822 41.8934 413.254 41.7498C413.83 41.7498 413.83 41.8934 414.119 41.3172C414.262 40.8856 414.406 40.8856 414.838 40.742C414.838 40.742 415.127 40.3094 415.127 40.1658C414.982 39.0135 411.407 40.0534 409.919 40.4971C403.896 42.2934 400.755 43.7425 398.163 44.7503C394.568 46.1396 390.228 47.9907 386.324 49.8043ZM380.776 37.1894C381.478 34.8842 383.189 32.1462 385.459 31.9569C386.324 31.8133 386.324 32.8211 386.18 33.3973C385.867 34.3362 385.033 35.8892 383.356 37.5824C382.733 38.2109 381.638 38.8586 380.526 39.338C380.493 38.6411 380.548 37.9372 380.776 37.1894ZM383.012 62.6317C382.58 65.6551 381.042 68.4479 378.691 71.1278C375.676 74.566 373.333 75.4771 369.157 75.7642C365.556 76.0533 364.03 74.9096 363.961 73.879C363.678 69.6282 370.865 64.7045 372.724 63.216C375.433 61.0452 378.1 59.4782 380.492 58.1999C380.989 57.9669 381.672 57.6204 382.479 57.1991C383.089 59.3577 383.223 60.9388 383.012 62.6317Z" fill="#0A66C2"/>
<path d="M380.526 39.3384C380.61 41.1043 381.473 42.8259 382.9 44.9519C384.816 43.9922 387.399 42.0022 388.234 41.0925C390.61 38.504 391.137 35.8574 391.415 33.9652C391.788 31.4286 388.067 28.5459 387.349 28.2578C386.919 29.5232 386.324 32.8215 386.18 33.3977C385.867 34.3365 385.033 35.8895 383.356 37.5829C382.733 38.2113 381.638 38.859 380.526 39.3384Z" fill="url(#paint32_linear_560_3)"/>
<path d="M379.693 50.2899C380.192 50.0087 380.688 49.7246 381.181 49.4611C382.372 48.8256 383.588 48.2559 384.78 47.6391C381.537 43.1318 379.747 40.5657 380.776 37.1896C381.445 34.9931 383.03 32.4035 385.142 32.0006C385.476 31.9367 385.72 31.9211 385.883 31.9981C383.678 29.2712 376.475 30.5631 375.033 37.346C375.032 37.4302 375.018 37.5159 375.019 37.5998C375.043 41.2191 376.347 44.0928 378.06 47.3851C378.565 48.356 379.174 49.3894 379.693 50.2899Z" fill="url(#paint33_radial_560_3)"/>
<path d="M374.328 74.6408C372.852 75.3244 371.231 75.6215 369.157 75.7641C365.556 76.0531 364.03 74.9093 363.961 73.8788C363.678 69.6279 370.865 64.7044 372.723 63.2158C376.211 60.4223 379.623 58.6271 382.47 57.1657C382.103 55.8738 381.558 54.3587 380.815 52.4971C376.615 54.7487 371.999 57.6408 369.904 58.6265C369.184 58.9155 369.041 59.6343 368.607 59.6343C368.176 59.6343 367.744 59.9234 367.457 60.2105C366.736 60.9312 365.577 61.569 362.587 64.5006C360.289 66.7542 359.087 68.9004 358.523 70.9254C357.655 77.6742 367.05 79.1671 374.328 74.6408Z" fill="url(#paint34_radial_560_3)"/>
<path d="M385.954 49.2754C382.368 44.244 380.173 41.5086 380.608 38.2592C378.858 37.4783 376.972 36.9164 375.117 36.3682C375.059 36.7803 375.016 37.1914 375.019 37.5991C375.043 41.2184 376.347 44.0922 378.06 47.3844C378.987 49.1659 380.301 51.2112 380.667 52.1177C380.722 52.254 380.764 52.3682 380.817 52.5009C382.423 51.657 384.317 50.7361 386.324 49.8038C386.2 49.627 386.082 49.4548 385.954 49.2754Z" fill="url(#paint35_linear_560_3)"/>
<path d="M383.012 62.6313C382.677 64.9732 381.665 67.1746 380.14 69.2943C381.087 70.4508 381.859 71.7504 382.894 72.8502C384.244 74.2846 385.773 75.5973 387.23 76.9296C387.503 76.7227 387.789 76.5356 388.053 76.3129C388.34 76.1683 388.485 75.7367 388.772 75.4476C388.916 75.3051 389.205 75.4476 389.348 75.3051C389.492 75.1605 389.492 74.8715 389.637 74.5844C389.781 74.4398 390.069 74.2953 390.213 74.1527C390.356 73.8636 390.356 73.7191 390.5 73.432C390.645 73.2875 390.932 73.1449 391.076 73.0004C391.508 72.4242 393.526 69.2562 393.236 65.223C393.015 61.7732 392.019 59.0124 390.182 55.8093C390.162 55.7748 389.691 54.9567 388.913 53.7129C386.457 55.0693 384.178 56.3112 382.479 57.1987C383.089 59.3575 383.223 60.9383 383.012 62.6313Z" fill="url(#paint36_linear_560_3)"/>
<defs>
<linearGradient id="paint0_linear_560_3" x1="0.415507" y1="38.9877" x2="29.7983" y2="53.9094" gradientUnits="userSpaceOnUse">
<stop offset="0.11361" stop-color="#0959AA" stop-opacity="0"/>
<stop offset="0.18824" stop-color="#0959AA" stop-opacity="0.37545"/>
<stop offset="0.31238" stop-color="#0959AA"/>
<stop offset="0.49204" stop-color="#0959AA"/>
<stop offset="0.68345" stop-color="#0959AA" stop-opacity="0.37686"/>
<stop offset="0.79921" stop-color="#0959AA" stop-opacity="0"/>
</linearGradient>
<linearGradient id="paint1_linear_560_3" x1="5.45466" y1="29.065" x2="34.8374" y2="43.9866" gradientUnits="userSpaceOnUse">
<stop offset="0.11361" stop-color="#0959AA" stop-opacity="0"/>
<stop offset="0.18824" stop-color="#0959AA" stop-opacity="0.37545"/>
<stop offset="0.31238" stop-color="#0959AA"/>
<stop offset="0.49204" stop-color="#0959AA"/>
<stop offset="0.68345" stop-color="#0959AA" stop-opacity="0.37686"/>
<stop offset="0.79921" stop-color="#0959AA" stop-opacity="0"/>
</linearGradient>
<radialGradient id="paint2_radial_560_3" cx="0" cy="0" r="1" gradientUnits="userSpaceOnUse" gradientTransform="translate(25.5981 -31.0713) scale(59.9921 59.9921)">
<stop stop-color="#0959AA" stop-opacity="0"/>
<stop offset="0.66832" stop-color="#0959AA" stop-opacity="0"/>
<stop offset="0.89457" stop-color="#0959AA"/>
</radialGradient>
<linearGradient id="paint3_linear_560_3" x1="7.21243" y1="132.02" x2="16.7635" y2="40.9184" gradientUnits="userSpaceOnUse">
<stop offset="0.38046" stop-color="#0959AA"/>
<stop offset="0.55513" stop-color="#0959AA" stop-opacity="0.68377"/>
<stop offset="0.9328" stop-color="#0959AA" stop-opacity="0"/>
</linearGradient>
<linearGradient id="paint4_linear_560_3" x1="30.568" y1="-8.3459" x2="18.1413" y2="35.924" gradientUnits="userSpaceOnUse">
<stop offset="0.27142" stop-color="#0959AA"/>
<stop offset="0.44202" stop-color="#0959AA" stop-opacity="0.69338"/>
<stop offset="0.72618" stop-color="#0959AA" stop-opacity="0.18264"/>
<stop offset="0.8278" stop-color="#0959AA" stop-opacity="0"/>
</linearGradient>
<radialGradient id="paint5_radial_560_3" cx="0" cy="0" r="1" gradientUnits="userSpaceOnUse" gradientTransform="translate(81.1968 32.6098) scale(62.1251 62.1251)">
<stop stop-color="#0959AA" stop-opacity="0"/>
<stop offset="0.53068" stop-color="#0959AA" stop-opacity="0"/>
<stop offset="1" stop-color="#0959AA"/>
</radialGradient>
<linearGradient id="paint6_linear_560_3" x1="80.7399" y1="42.5404" x2="52.3317" y2="69.6016" gradientUnits="userSpaceOnUse">
<stop offset="0.31811" stop-color="#0959AA"/>
<stop offset="0.50903" stop-color="#0959AA" stop-opacity="0.68377"/>
<stop offset="0.92184" stop-color="#0959AA" stop-opacity="0"/>
</linearGradient>
<linearGradient id="paint7_linear_560_3" x1="61.0132" y1="45.2592" x2="62.9724" y2="-13.7612" gradientUnits="userSpaceOnUse">
<stop offset="0.19068" stop-color="#0959AA"/>
<stop offset="0.50638" stop-color="#0959AA" stop-opacity="0"/>
</linearGradient>
<radialGradient id="paint8_radial_560_3" cx="0" cy="0" r="1" gradientUnits="userSpaceOnUse" gradientTransform="translate(90.0067 44.7205) rotate(171.041) scale(20.4448 10.2298)">
<stop offset="0.2098" stop-color="#0959AA"/>
<stop offset="0.82889" stop-color="#0959AA" stop-opacity="0"/>
</radialGradient>
<linearGradient id="paint9_linear_560_3" x1="122.594" y1="28.3068" x2="75.8183" y2="74.3477" gradientUnits="userSpaceOnUse">
<stop offset="0.3816" stop-color="#0959AA"/>
<stop offset="0.55244" stop-color="#0959AA" stop-opacity="0.68377"/>
<stop offset="0.92184" stop-color="#0959AA" stop-opacity="0"/>
</linearGradient>
<radialGradient id="paint10_radial_560_3" cx="0" cy="0" r="1" gradientUnits="userSpaceOnUse" gradientTransform="translate(136.681 26.732) scale(83.8986 83.8986)">
<stop stop-color="#0959AA" stop-opacity="0"/>
<stop offset="0.74334" stop-color="#0959AA" stop-opacity="0"/>
<stop offset="1" stop-color="#0959AA"/>
</radialGradient>
<linearGradient id="paint11_linear_560_3" x1="98.7059" y1="50.9556" x2="134.489" y2="56.5053" gradientUnits="userSpaceOnUse">
<stop offset="0.19621" stop-color="#0959AA"/>
<stop offset="0.61474" stop-color="#0959AA" stop-opacity="0.22835"/>
<stop offset="0.7386" stop-color="#0959AA" stop-opacity="0"/>
</linearGradient>
<radialGradient id="paint12_radial_560_3" cx="0" cy="0" r="1" gradientUnits="userSpaceOnUse" gradientTransform="translate(139.805 43.5573) scale(55.6727 55.6727)">
<stop stop-color="#0959AA" stop-opacity="0"/>
<stop offset="0.61314" stop-color="#0959AA" stop-opacity="0"/>
<stop offset="0.94587" stop-color="#0959AA"/>
</radialGradient>
<linearGradient id="paint13_linear_560_3" x1="149.54" y1="40.5845" x2="117.336" y2="74.7477" gradientUnits="userSpaceOnUse">
<stop offset="0.28222" stop-color="#0959AA"/>
<stop offset="0.48449" stop-color="#0959AA" stop-opacity="0.68377"/>
<stop offset="0.92184" stop-color="#0959AA" stop-opacity="0"/>
</linearGradient>
<linearGradient id="paint14_linear_560_3" x1="185.868" y1="27.0045" x2="163.297" y2="11.9362" gradientUnits="userSpaceOnUse">
<stop offset="0.53252" stop-color="#0959AA"/>
<stop offset="0.6664" stop-color="#0959AA" stop-opacity="0.68377"/>
<stop offset="0.9559" stop-color="#0959AA" stop-opacity="0"/>
</linearGradient>
<radialGradient id="paint15_radial_560_3" cx="0" cy="0" r="1" gradientUnits="userSpaceOnUse" gradientTransform="translate(210.818 2.26954) scale(120.306 120.306)">
<stop stop-color="#0959AA" stop-opacity="0"/>
<stop offset="0.58809" stop-color="#0959AA" stop-opacity="0"/>
<stop offset="0.92857" stop-color="#0959AA"/>
</radialGradient>
<radialGradient id="paint16_radial_560_3" cx="0" cy="0" r="1" gradientUnits="userSpaceOnUse" gradientTransform="translate(235.223 38.3394) scale(58.8109 58.8109)">
<stop stop-color="#0959AA" stop-opacity="0"/>
<stop offset="0.50619" stop-color="#0959AA" stop-opacity="0"/>
<stop offset="0.89473" stop-color="#0959AA"/>
</radialGradient>
<linearGradient id="paint17_linear_560_3" x1="231.943" y1="45.1993" x2="211.317" y2="67.6727" gradientUnits="userSpaceOnUse">
<stop offset="0.25797" stop-color="#0959AA"/>
<stop offset="0.47882" stop-color="#0959AA" stop-opacity="0.68377"/>
<stop offset="0.95634" stop-color="#0959AA" stop-opacity="0"/>
</linearGradient>
<radialGradient id="paint18_radial_560_3" cx="0" cy="0" r="1" gradientUnits="userSpaceOnUse" gradientTransform="translate(209.31 41.2588) rotate(48.3484) scale(11.097 7.74708)">
<stop offset="0.19774" stop-color="#0959AA"/>
<stop offset="1" stop-color="#0959AA" stop-opacity="0"/>
</radialGradient>
<radialGradient id="paint19_radial_560_3" cx="0" cy="0" r="1" gradientUnits="userSpaceOnUse" gradientTransform="translate(224.416 24.832) scale(76.0079 76.0079)">
<stop stop-color="#0959AA" stop-opacity="0"/>
<stop offset="0.61564" stop-color="#0959AA" stop-opacity="0"/>
<stop offset="0.92689" stop-color="#0959AA"/>
</radialGradient>
<linearGradient id="paint20_linear_560_3" x1="212.118" y1="63.8333" x2="180.793" y2="68.7588" gradientUnits="userSpaceOnUse">
<stop offset="0.21023" stop-color="#0959AA"/>
<stop offset="0.43527" stop-color="#0959AA" stop-opacity="0.68377"/>
<stop offset="0.92184" stop-color="#0959AA" stop-opacity="0"/>
</linearGradient>
<linearGradient id="paint21_linear_560_3" x1="227.268" y1="75.035" x2="259.167" y2="40.9822" gradientUnits="userSpaceOnUse">
<stop offset="0.21023" stop-color="#0959AA"/>
<stop offset="0.43527" stop-color="#0959AA" stop-opacity="0.68377"/>
<stop offset="0.92184" stop-color="#0959AA" stop-opacity="0"/>
</linearGradient>
<radialGradient id="paint22_radial_560_3" cx="0" cy="0" r="1" gradientUnits="userSpaceOnUse" gradientTransform="translate(290.996 25.6269) scale(73.0014 73.0014)">
<stop stop-color="#0959AA" stop-opacity="0"/>
<stop offset="0.52767" stop-color="#0959AA" stop-opacity="0"/>
<stop offset="0.94021" stop-color="#0959AA"/>
</radialGradient>
<linearGradient id="paint23_linear_560_3" x1="282.214" y1="47.0293" x2="252.336" y2="77.2742" gradientUnits="userSpaceOnUse">
<stop offset="0.07279" stop-color="#0959AA"/>
<stop offset="0.34129" stop-color="#0959AA" stop-opacity="0.68377"/>
<stop offset="0.92184" stop-color="#0959AA" stop-opacity="0"/>
</linearGradient>
<linearGradient id="paint24_linear_560_3" x1="227.957" y1="126.088" x2="237.677" y2="33.3069" gradientUnits="userSpaceOnUse">
<stop offset="0.21023" stop-color="#0959AA"/>
<stop offset="0.43527" stop-color="#0959AA" stop-opacity="0.68377"/>
<stop offset="0.92184" stop-color="#0959AA" stop-opacity="0"/>
</linearGradient>
<linearGradient id="paint25_linear_560_3" x1="298.701" y1="34.1118" x2="331.211" y2="42.1934" gradientUnits="userSpaceOnUse">
<stop offset="0.16769" stop-color="#0959AA"/>
<stop offset="0.34212" stop-color="#0959AA" stop-opacity="0.71493"/>
<stop offset="0.60672" stop-color="#0959AA" stop-opacity="0.28249"/>
<stop offset="0.77957" stop-color="#0959AA" stop-opacity="0"/>
</linearGradient>
<radialGradient id="paint26_radial_560_3" cx="0" cy="0" r="1" gradientUnits="userSpaceOnUse" gradientTransform="translate(341.246 4.46764) scale(107.607 107.607)">
<stop stop-color="#0959AA" stop-opacity="0"/>
<stop offset="0.61558" stop-color="#0959AA" stop-opacity="0"/>
<stop offset="0.91652" stop-color="#0959AA"/>
</radialGradient>
<radialGradient id="paint27_radial_560_3" cx="0" cy="0" r="1" gradientUnits="userSpaceOnUse" gradientTransform="translate(374.442 38.3394) scale(58.8109 58.8109)">
<stop stop-color="#0959AA" stop-opacity="0"/>
<stop offset="0.50619" stop-color="#0959AA" stop-opacity="0"/>
<stop offset="0.89473" stop-color="#0959AA"/>
</radialGradient>
<linearGradient id="paint28_linear_560_3" x1="371.162" y1="45.1993" x2="350.536" y2="67.6727" gradientUnits="userSpaceOnUse">
<stop offset="0.25797" stop-color="#0959AA"/>
<stop offset="0.47882" stop-color="#0959AA" stop-opacity="0.68377"/>
<stop offset="0.95634" stop-color="#0959AA" stop-opacity="0"/>
</linearGradient>
<radialGradient id="paint29_radial_560_3" cx="0" cy="0" r="1" gradientUnits="userSpaceOnUse" gradientTransform="translate(348.529 41.2588) rotate(48.3484) scale(11.097 7.74708)">
<stop offset="0.19774" stop-color="#0959AA"/>
<stop offset="1" stop-color="#0959AA" stop-opacity="0"/>
</radialGradient>
<radialGradient id="paint30_radial_560_3" cx="0" cy="0" r="1" gradientUnits="userSpaceOnUse" gradientTransform="translate(363.635 24.832) scale(76.0079 76.0079)">
<stop stop-color="#0959AA" stop-opacity="0"/>
<stop offset="0.61564" stop-color="#0959AA" stop-opacity="0"/>
<stop offset="0.92689" stop-color="#0959AA"/>
</radialGradient>
<linearGradient id="paint31_linear_560_3" x1="351.337" y1="63.8333" x2="320.011" y2="68.7588" gradientUnits="userSpaceOnUse">
<stop offset="0.21023" stop-color="#0959AA"/>
<stop offset="0.43527" stop-color="#0959AA" stop-opacity="0.68377"/>
<stop offset="0.92184" stop-color="#0959AA" stop-opacity="0"/>
</linearGradient>
<linearGradient id="paint32_linear_560_3" x1="368.788" y1="47.615" x2="392.916" y2="31.4623" gradientUnits="userSpaceOnUse">
<stop offset="0.3682" stop-color="#0959AA"/>
<stop offset="0.50289" stop-color="#0959AA" stop-opacity="0.68377"/>
<stop offset="0.79414" stop-color="#0959AA" stop-opacity="0"/>
</linearGradient>
<radialGradient id="paint33_radial_560_3" cx="0" cy="0" r="1" gradientUnits="userSpaceOnUse" gradientTransform="translate(395.658 73.9207) scale(53.876 53.8761)">
<stop stop-color="#0959AA" stop-opacity="0"/>
<stop offset="0.63258" stop-color="#0959AA" stop-opacity="0"/>
<stop offset="0.93384" stop-color="#0959AA"/>
</radialGradient>
<radialGradient id="paint34_radial_560_3" cx="0" cy="0" r="1" gradientUnits="userSpaceOnUse" gradientTransform="translate(408.566 43.3025) scale(65.8712 65.8712)">
<stop stop-color="#0959AA" stop-opacity="0"/>
<stop offset="0.63311" stop-color="#0959AA" stop-opacity="0"/>
<stop offset="0.94238" stop-color="#0959AA"/>
</radialGradient>
<linearGradient id="paint35_linear_560_3" x1="377.582" y1="40.053" x2="392.765" y2="65.8897" gradientUnits="userSpaceOnUse">
<stop offset="0.06869" stop-color="#0959AA" stop-opacity="0"/>
<stop offset="0.19295" stop-color="#0959AA" stop-opacity="0.2915"/>
<stop offset="0.38842" stop-color="#0959AA" stop-opacity="0.75005"/>
<stop offset="0.49497" stop-color="#0959AA"/>
<stop offset="0.5762" stop-color="#0959AA" stop-opacity="0.83916"/>
<stop offset="0.69957" stop-color="#0959AA" stop-opacity="0.59488"/>
<stop offset="0.83424" stop-color="#0959AA" stop-opacity="0.32822"/>
<stop offset="1" stop-color="#0959AA" stop-opacity="0"/>
</linearGradient>
<linearGradient id="paint36_linear_560_3" x1="373.388" y1="42.5178" x2="388.335" y2="67.9531" gradientUnits="userSpaceOnUse">
<stop offset="0.06869" stop-color="#0959AA" stop-opacity="0"/>
<stop offset="0.21466" stop-color="#0959AA" stop-opacity="0.32045"/>
<stop offset="0.33844" stop-color="#0959AA" stop-opacity="0.59221"/>
<stop offset="0.45373" stop-color="#0959AA" stop-opacity="0.84531"/>
<stop offset="0.52419" stop-color="#0959AA"/>
<stop offset="0.6685" stop-color="#0959AA" stop-opacity="0.67358"/>
<stop offset="0.84332" stop-color="#0959AA" stop-opacity="0.27812"/>
<stop offset="0.96628" stop-color="#0959AA" stop-opacity="0"/>
</linearGradient>
</defs>
</svg>
